PathFileType	4	(X/Y/Z)	/Users/itak/Documents/Research/Walk-IL/dataset/trc/00314_00010.trc
DataRate	CameraRate	NumFrames	NumMarkers	Units	OrigDataRate	OrigDataStartFrame	OrigNumFrames
100.000000	100.000000	4	55	mm	100.000000	271	543
Frame#	Time	RPSI			LPSI			L3			STRN			T10			C7			CLAV			RBAK			LBAK			LSHO			LUPA			LAEL			LAOL			LWTS			LWPS			LFRA			LIFD			LHPS			LHTS			RSHO			RUPA			RAEL			RAOL			RWTS			RWPS			RFRA			RIFD			RHPS			RBHD			LFHD			RFHD			LBHD			LHIP			RHIP			RASI			LASI			LKNE			LTHI			LANK			LTIP			LTOE			LMT1			LMT5			LHEE			RKNE			RTHI			RANK			RTIP			RTOE			RMT1			RMT5			RHEE			RHTS			*53			*54			
		X1	Y1	Z1	X2	Y2	Z2	X3	Y3	Z3	X4	Y4	Z4	X5	Y5	Z5	X6	Y6	Z6	X7	Y7	Z7	X8	Y8	Z8	X9	Y9	Z9	X10	Y10	Z10	X11	Y11	Z11	X12	Y12	Z12	X13	Y13	Z13	X14	Y14	Z14	X15	Y15	Z15	X16	Y16	Z16	X17	Y17	Z17	X18	Y18	Z18	X19	Y19	Z19	X20	Y20	Z20	X21	Y21	Z21	X22	Y22	Z22	X23	Y23	Z23	X24	Y24	Z24	X25	Y25	Z25	X26	Y26	Z26	X27	Y27	Z27	X28	Y28	Z28	X29	Y29	Z29	X30	Y30	Z30	X31	Y31	Z31	X32	Y32	Z32	X33	Y33	Z33	X34	Y34	Z34	X35	Y35	Z35	X36	Y36	Z36	X37	Y37	Z37	X38	Y38	Z38	X39	Y39	Z39	X40	Y40	Z40	X41	Y41	Z41	X42	Y42	Z42	X43	Y43	Z43	X44	Y44	Z44	X45	Y45	Z45	X46	Y46	Z46	X47	Y47	Z47	X48	Y48	Z48	X49	Y49	Z49	X50	Y50	Z50	X51	Y51	Z51	X52	Y52	Z52	X53	Y53	Z53	X54	Y54	Z54	X55	Y55	Z55	

272	2.71	-264.6765747070312	972.9944458007812	-393.16357421875	-130.1586761474609	985.1433715820312	-505.9618225097656	-190.8838806152344	1054.678466796875	-433.093017578125	-16.67653274536133	1230.549072265625	-260.2504272460938	-206.3427124023438	1166.268188476562	-441.6336669921875	-157.570068359375	1410.370361328125	-431.4048156738281	-52.55556106567383	1331.294555664062	-312.4788513183594	-252.6166839599609	1277.645263671875	-407.3148498535156	-97.93231964111328	1367.290161132812	-513.322509765625	3.270414352416992	1375.357055664062	-490.1850280761719	19.63657379150391	1262.196166992188	-571.5753784179688	3.774870157241821	1062.004028320312	-599.15576171875	-79.66989135742188	1054.898193359375	-575.7401733398438	13.02060794830322	822.6240844726562	-553.5108032226562	9.68101978302002	824.1509399414062	-626.5882568359375	3.874664068222046	957.507568359375	-615.4547729492188	-18.81275749206543	643.7242431640625	-587.0069580078125	-3.778712749481201	737.9130859375	-637.5452880859375	23.71758079528809	723.63232421875	-578.306884765625	-222.1980895996094	1398.98193359375	-271.6759643554688	-274.9820556640625	1342.55517578125	-226.2340087890625	-308.9876098632812	1075.547119140625	-177.9769287109375	-282.187744140625	1065.2939453125	-268.1364135742188	-131.7511291503906	901.8031005859375	-150.4915618896484	-198.9374237060547	877.3343505859375	-105.3817901611328	-277.5243835449219	1016.378540039062	-148.7574920654297	-65.61338806152344	729.0021362304688	-141.6608581542969	-139.4386901855469	779.6679077148438	-89.45138549804688	-188.0571441650391	1569.806396484375	-397.1836242675781	-5.958749294281006	1612.947143554688	-296.8849487304688	-87.62277221679688	1607.912109375	-255.5348815917969	-56.51004409790039	1568.190551757812	-460.1579895019531	-7.280570983886719	950.6730346679688	-514.4195556640625	-273.74658203125	912.4051513671875	-253.1490783691406	-141.7015686035156	928.399169921875	-202.4853515625	39.52507781982422	951.3477172851562	-375.1435241699219	81.96443176269531	493.0255126953125	-382.6715393066406	74.49539947509766	631.9152221679688	-425.6268005371094	40.22574996948242	40.37866592407227	-438.8319396972656	71.82764434814453	261.2529907226562	-415.0667114257812	87.74407958984375	42.65832138061523	-228.4688568115234	19.05849266052246	34.13066101074219	-269.6441650390625	109.5001983642578	39.47001647949219	-337.2195129394531	-34.99000549316406	37.68693161010742	-448.5374450683594	-192.8788604736328	452.1448364257812	-227.4475250244141	-218.14892578125	705.7765502929688	-209.5556640625	-420.3924560546875	189.1719207763672	-508.3275146484375	-229.8732452392578	349.9693298339844	-284.8316345214844	-286.6497802734375	56.95938873291016	-471.1513977050781	-290.3672485351562	97.66423797607422	-525.36865234375	-392.1759643554688	98.21189117431641	-463.0698547363281	-412.6968994140625	234.1995849609375	-562.1629638671875	-76.52736663818359	800.251220703125	-115.9026412963867	nan	nan	nan	nan	nan	nan	
273	2.72	-258.0520629882812	973.3709716796875	-389.9303588867188	-122.1436004638672	985.7222290039062	-501.2804565429688	-183.7526397705078	1055.510498046875	-429.4015197753906	-11.49819278717041	1230.82958984375	-253.2278137207031	-198.6663970947266	1167.574584960938	-437.7726440429688	-149.5913848876953	1411.701416015625	-426.0301818847656	-46.42342376708984	1331.670166015625	-305.6924743652344	-245.1453552246094	1278.941040039062	-403.5650329589844	-88.77816009521484	1368.717041015625	-507.1919555664062	12.19129467010498	1376.218017578125	-482.4672241210938	31.15777397155762	1262.683959960938	-563.072998046875	18.08102226257324	1061.945678710938	-589.8897705078125	-66.12574768066406	1054.418334960938	-568.985595703125	28.49372673034668	823.2650146484375	-542.2184448242188	26.5666561126709	824.2582397460938	-615.3329467773438	19.25583648681641	957.3906860351562	-605.1953125	0.2729930579662323	643.5819702148438	-575.2941284179688	14.68033027648926	737.823486328125	-626.0008544921875	41.31265640258789	724.3399658203125	-566.2108764648438	-216.3348846435547	1399.702270507812	-266.9993591308594	-269.89794921875	1343.263793945312	-222.4618988037109	-305.6615905761719	1076.2158203125	-176.1086578369141	-277.4638671875	1066.139526367188	-265.8171691894531	-132.8332214355469	898.6388549804688	-146.3291625976562	-201.4907531738281	875.22265625	-102.933837890625	-275.9273376464844	1016.279174804688	-146.7112579345703	-70.24912261962891	724.5748901367188	-136.6918792724609	-144.4256744384766	776.3939208984375	-86.27812194824219	-180.5759735107422	1570.779541015625	-391.85791015625	0.7808237671852112	1613.951904296875	-290.3202209472656	-81.07508087158203	1609.105712890625	-249.5358428955078	-48.6259651184082	1568.907104492188	-453.8662719726562	0.6768311262130737	951.2637329101562	-508.3255920410156	-268.3122863769531	913.135009765625	-249.8525848388672	-137.2223205566406	929.1005249023438	-198.0612640380859	46.13549423217773	951.8868408203125	-368.6849060058594	85.01367950439453	492.265869140625	-379.6533508300781	79.05867004394531	631.6632080078125	-421.1603698730469	39.99467849731445	40.74935150146484	-438.4903869628906	73.06982421875	260.7818603515625	-413.3351440429688	87.6588134765625	41.53055191040039	-227.8948516845703	18.88907623291016	33.6298713684082	-269.27734375	109.3330764770508	39.43593978881836	-336.9053955078125	-35.16096115112305	38.00233840942383	-448.334716796875	-180.2338714599609	454.6934814453125	-213.8302917480469	-211.1534729003906	707.9718627929688	-202.4614562988281	-403.852783203125	193.1496887207031	-498.7479553222656	-215.7400360107422	352.372314453125	-271.7073974609375	-272.2198486328125	60.43157196044922	-451.6536560058594	-273.9963073730469	99.51279449462891	-507.8871765136719	-377.9700012207031	103.9582824707031	-448.9496459960938	-394.1957092285156	236.1544952392578	-554.0023193359375	-80.53324127197266	795.877685546875	-110.9554443359375	nan	nan	nan	nan	nan	nan	
274	2.73	-251.5579681396484	973.7813720703125	-386.5948791503906	-114.2474822998047	986.1703491210938	-496.55126953125	-176.7210083007812	1056.326782226562	-425.7177734375	-6.404100894927979	1231.131469726562	-246.2772979736328	-191.1522827148438	1168.87646484375	-433.978759765625	-141.7552642822266	1412.996948242188	-420.6384887695312	-40.43735122680664	1332.047241210938	-298.9466247558594	-237.7757873535156	1280.2158203125	-399.8558959960938	-79.71103668212891	1370.14208984375	-501.0657653808594	20.92791557312012	1377.091186523438	-474.7014770507812	42.51675796508789	1263.18896484375	-554.4236450195312	32.4491081237793	1061.924072265625	-580.2279052734375	-52.47161865234375	1053.883422851562	-561.9196166992188	44.00841522216797	823.97412109375	-530.5152587890625	43.57475662231445	824.480712890625	-603.6185913085938	34.75532531738281	957.325439453125	-594.49365234375	19.4211540222168	643.5809936523438	-563.2566528320312	33.28523635864258	737.9003295898438	-614.0481567382812	58.93031311035156	725.139892578125	-553.6964111328125	-210.6237030029297	1400.394775390625	-262.3720092773438	-264.9755554199219	1343.937866210938	-218.7949371337891	-302.3488464355469	1076.814331054688	-174.5513763427734	-272.5364685058594	1066.935546875	-263.67041015625	-134.2742919921875	895.4403686523438	-141.9970550537109	-204.5988922119141	873.0098266601562	-100.8261260986328	-274.5640869140625	1016.098083496094	-144.9559020996094	-75.17191314697266	720.2540283203125	-130.9661254882812	-150.0427093505859	773.173828125	-83.08561706542969	-173.22705078125	1571.755004882812	-386.4201965332031	7.358687400817871	1614.878051757812	-283.5466003417969	-74.71289825439453	1610.19580078125	-243.3690948486328	-40.84212112426758	1569.657836914062	-447.4160461425781	8.320272445678711	951.7547607421875	-502.3016357421875	-262.9793395996094	914.0650634765625	-246.3749237060547	-132.7774200439453	929.9312744140625	-193.6841583251953	52.60378646850586	952.4099731445312	-362.3202514648438	87.92681121826172	491.5112609863281	-376.6852722167969	83.45726013183594	631.3809814453125	-416.7068481445312	39.78173065185547	41.12344360351562	-438.2157592773438	74.25200653076172	260.325439453125	-411.6258850097656	87.59851837158203	40.54314804077148	-227.372802734375	18.74866676330566	33.21033477783203	-268.932861328125	109.2024917602539	39.44089126586914	-336.6164245605469	-35.3188362121582	38.31682586669922	-448.1315612792969	-167.8227844238281	457.5213928222656	-200.3059539794922	-204.1989135742188	710.4122924804688	-195.2010498046875	-386.8386535644531	195.6802520751953	-488.2701721191406	-201.7101440429688	354.8120422363281	-258.4700622558594	-256.8027038574219	63.60292816162109	-432.1792602539062	-257.0199584960938	100.8110504150391	-490.166015625	-362.6979064941406	108.4222412109375	-434.1954650878906	-375.6087036132812	236.6821899414062	-544.8794555664062	-85.12220001220703	791.602294921875	-105.4190368652344	nan	nan	nan	nan	nan	nan	
275	2.74	-245.1820068359375	974.2149047851562	-383.1330261230469	-106.5205993652344	986.5234375	-491.7581787109375	-169.7534484863281	1057.124633789062	-421.9871826171875	-1.3663409948349	1231.499267578125	-239.3936309814453	-183.7504577636719	1170.156494140625	-430.2222595214844	-134.0635833740234	1414.231201171875	-415.2476501464844	-34.59206390380859	1332.466674804688	-292.2551879882812	-230.4923248291016	1281.448852539062	-396.1854858398438	-70.73258972167969	1371.534423828125	-494.9384765625	29.4817943572998	1378.006103515625	-466.9029846191406	53.68186569213867	1263.748291015625	-545.6461791992188	46.80286026000977	1061.988403320312	-570.1927490234375	-38.74197006225586	1053.34619140625	-554.517822265625	59.52680206298828	824.8031005859375	-518.398193359375	60.64697647094727	824.8616943359375	-591.4420166015625	50.30420684814453	957.3640747070312	-583.3629760742188	38.60231018066406	643.77197265625	-550.8472290039062	51.98476791381836	738.184326171875	-601.6612548828125	76.53200531005859	726.0706787109375	-540.7468872070312	-205.0676574707031	1401.07861328125	-257.8255920410156	-260.2203369140625	1344.600952148438	-215.2665252685547	-299.0312805175781	1077.383666992188	-173.2655944824219	-267.3914184570312	1067.714233398438	-261.6482849121094	-136.0421905517578	892.24560546875	-137.5289916992188	-208.1966247558594	870.7730712890625	-99.07154083251953	-273.3969116210938	1015.885925292969	-143.4718475341797	-80.47205352783203	716.0306396484375	-124.649299621582	-156.2570953369141	770.0536499023438	-79.95192718505859	-166.0299224853516	1572.732788085938	-380.886474609375	13.77861404418945	1615.710205078125	-276.5700988769531	-68.53610229492188	1611.163818359375	-237.0402069091797	-33.15871047973633	1570.447631835938	-440.8155517578125	15.6334171295166	952.1591796875	-496.3854370117188	-257.7272338867188	915.1572875976562	-242.7149353027344	-128.3178100585938	930.8978271484375	-189.3263549804688	58.94573593139648	952.9269409179688	-356.0479431152344	90.74298858642578	490.7884826660156	-373.8143920898438	87.72584533691406	631.1053466796875	-412.2965087890625	39.60933685302734	41.49068450927734	-438.0213928222656	75.40012359619141	259.9012451171875	-410.0027160644531	87.56689453125	39.71794509887695	-226.9141540527344	18.63952255249023	32.87450408935547	-268.6192016601562	109.1105117797852	39.4827766418457	-336.3592529296875	-35.45743560791016	38.63846206665039	-447.9257202148438	-155.7160339355469	460.60498046875	-186.9610900878906	-197.2963714599609	713.0562744140625	-187.79443359375	-369.4561462402344	196.6576385498047	-476.8202209472656	-187.880126953125	357.2818298339844	-245.1363372802734	-240.3074340820312	66.3236083984375	-412.9576721191406	-239.3916625976562	101.5980453491211	-472.3934936523438	-346.3586730957031	111.4201278686523	-418.914794921875	-357.1279296875	235.7932434082031	-534.6630249023438	-90.30707550048828	787.438720703125	-99.43233489990234	nan	nan	nan	nan	nan	nan	
